# xmcd
# Copyright (C) 1995-1998 Ti Kan
#
# Track frame offsets:
#       150
#       19736
#       37260
#       50234
#       67096
#       81757
#       97024
#       117318
#       133929
#       150091
#       163215
#       177601
#
# Disc length: 2555 seconds
#
# Revision: 0
# Processed by: cddbd v1.5.2PL0 Copyright (c) Steve Scherf et al.
# Submitted via: CD-Transfer v1.0
#
DISCID=ae09f90c
DTITLE=Weihnachten/Fidele Mölltaler - 
DYEAR=1900
DGENRE=
TTITLE0=Es Ist Zeit Um Nachzudenken
TTITLE1=Schöe Berge,Schöne Almen
TTITLE2=Oh Du Schöne Weihnachtszeit
TTITLE3=Schneeflocken Walzer
TTITLE4=Liabs Muattal Schau Oba
TTITLE5=Vom Turm Es Klingt
TTITLE6=Weihnachtsmelodie
TTITLE7=Ein Kleines Blümelein
TTITLE8=Jägersmann Oh Jägersmann
TTITLE9=Zitherglocken
TTITLE10=Wo Sich Zwei Wege Sehn
TTITLE11=Wir Kinder Dieser Welt
EXTD=
EXTT0=
EXTT1=
EXTT2=
EXTT3=
EXTT4=
EXTT5=
EXTT6=
EXTT7=
EXTT8=
EXTT9=
EXTT10=
EXTT11=
PLAYORDER=
